<?xml version="1.0" encoding="UTF-8"?>
<svg width="34px" height="19px" viewBox="0 0 34 19" version="1.1" xmlns="http://www.w3.org/2000/svg" xmlns:xlink="http://www.w3.org/1999/xlink">
    <!-- Generator: sketchtool 45.2 (43514) - http://www.bohemiancoding.com/sketch -->
    <title>539EEF7B-52D7-4F42-8163-DF4C0EF69B40</title>
    <desc>Created with sketchtool.</desc>
    <defs></defs>
    <g id="Page-1" stroke="none" stroke-width="1" fill="none" fill-rule="evenodd">
        <g id="item.html" transform="translate(-226.000000, -1726.000000)" fill-rule="nonzero" fill="#FFFFFF">
            <g id="Social" transform="translate(130.000000, 1621.000000)">
                <g id="vk" transform="translate(0.000000, 83.000000)">
                    <g id="about-vk" transform="translate(96.000000, 22.000000)">
                        <path d="M33.0012125,17.1402702 C32.9610388,17.0536909 32.9235877,16.9818743 32.8887987,16.9243363 C32.3131768,15.887624 31.2131787,14.615133 29.58947,13.1065002 L29.555165,13.0719533 L29.5379823,13.0550125 L29.520618,13.0376483 L29.5031933,13.0376483 C28.7662714,12.3351524 28.2996147,11.8628085 28.1041913,11.6209795 C27.7466208,11.1603126 27.6665153,10.6940189 27.8619388,10.221554 C28.0000058,9.86458856 28.5186342,9.11072596 29.416614,7.95893766 C29.8889579,7.34852676 30.2630456,6.85930261 30.5393006,6.49072067 C32.5317122,3.84191613 33.3955081,2.14929494 33.1305066,1.41219157 L33.0275917,1.23994062 C32.9584372,1.13623913 32.7799545,1.04137103 32.4923855,0.954852289 C32.2041511,0.868515056 31.8357506,0.854236439 31.3865187,0.911774427 L26.4117516,0.946139913 C26.3311621,0.917582678 26.2160861,0.920244793 26.0661606,0.954852289 C25.9164167,0.989459786 25.8415144,1.00682404 25.8415144,1.00682404 L25.7549352,1.05008341 L25.6862042,1.10205515 C25.6286057,1.13642064 25.5652595,1.19686275 25.496105,1.28326049 C25.4273135,1.36935571 25.3697755,1.47039508 25.3237935,1.58553156 C24.7821741,2.97896732 24.1663785,4.27450984 23.4752571,5.47209862 C23.0491372,6.186211 22.6578063,6.80509226 22.3004173,7.32910542 C21.9435124,7.85293707 21.6440849,8.23888326 21.4024375,8.48627846 C21.160427,8.73391567 20.9420126,8.93230375 20.7458631,9.08216873 C20.5500161,9.23209421 20.4005142,9.29544045 20.2969942,9.27226795 C20.1932322,9.24909545 20.0955205,9.22610445 20.003012,9.20311346 C19.8418935,9.09941197 19.7122969,8.95838038 19.6145852,8.77989766 C19.5164499,8.60141494 19.4503811,8.37676873 19.4158341,8.10614052 C19.3814686,7.83533081 19.3611397,7.60239574 19.3553315,7.40654877 C19.3499467,7.21094381 19.3524273,6.93426535 19.3641043,6.57729991 C19.3760839,6.22015297 19.3814686,5.97850552 19.3814686,5.85181304 C19.3814686,5.41413712 19.3899995,4.93913108 19.4071217,4.42667392 C19.4245464,3.91421676 19.4386436,3.5081837 19.4504416,3.20905877 C19.4621791,2.90963132 19.4676243,2.59283962 19.4676243,2.25886518 C19.4676243,1.92489074 19.4472954,1.66297491 19.4071217,1.47287569 C19.367432,1.28301848 19.3065058,1.09872751 19.2262189,0.920063285 C19.1454479,0.741580567 19.0272258,0.603513597 18.8720971,0.505499359 C18.7166658,0.407606126 18.5234205,0.329920766 18.29345,0.27220127 C17.6830391,0.134073798 16.905762,0.0593530665 15.9612557,0.0477365642 C13.8194026,0.02474557 12.4431496,0.163054551 11.8327992,0.462481998 C11.5909702,0.588992969 11.3721322,0.761848944 11.1764668,0.980505399 C10.9691243,1.23395086 10.9402041,1.37225984 11.0898875,1.39500882 C11.7809484,1.4985288 12.2701726,1.74616601 12.5581045,2.13767844 L12.6618665,2.34514191 C12.742577,2.49482538 12.8231665,2.75982684 12.9038165,3.13978327 C12.9843455,3.5197397 13.0363172,3.94005137 13.0591872,4.40047628 C13.1166647,5.24128114 13.1166647,5.96102026 13.0591872,6.55975415 C13.0015282,7.15873006 12.9470759,7.62502372 12.8951041,7.95899816 C12.8431324,8.2929726 12.765447,8.5636008 12.6618665,8.77082226 C12.5581045,8.97810423 12.489071,9.10479671 12.4544636,9.15077869 C12.4199166,9.19676068 12.3911173,9.22574144 12.3682473,9.23711593 C12.2185639,9.29447241 12.0628906,9.32369517 11.9017722,9.32369517 C11.7404117,9.32369517 11.5447462,9.24298468 11.3144733,9.08168471 C11.0842608,8.92038473 10.845336,8.69882415 10.5976988,8.41663995 C10.3500616,8.13439524 10.0707815,7.73997869 9.75973753,7.23332978 C9.44893559,6.72668087 9.12645664,6.12788648 8.7924822,5.4369466 L8.51616675,4.93586393 C8.34343178,4.613506 8.10747158,4.1441267 7.80804413,3.52814956 C7.50843518,2.91193042 7.24361523,2.31585864 7.01340277,1.74005524 C6.92137829,1.49822629 6.78312981,1.31411682 6.59889935,1.18742435 L6.51244111,1.1354526 C6.45496362,1.08947061 6.36269713,1.040645 6.23612566,0.988612749 C6.10937268,0.936641002 5.97711396,0.89937139 5.83880498,0.876440899 L1.10574581,0.910806385 C0.6220879,0.910806385 0.29392171,1.02037662 0.121126238,1.23921459 L0.0519717473,1.34273456 C0.0174247535,1.40039356 0,1.49247854 0,1.61923152 C0,1.745924 0.0345469939,1.90141572 0.103701484,2.08552518 C0.794641362,3.7094154 1.54602335,5.27552562 2.35784746,6.78409786 C3.16967156,8.29267009 3.87513207,9.50786514 4.47380545,10.4285939 C5.07259985,11.3499883 5.68295024,12.2195924 6.30485663,13.0369827 C6.92676302,13.8546756 7.33842283,14.3786888 7.53983603,14.6089012 C7.74149125,14.8395372 7.8998871,15.0119696 8.01502358,15.1271061 L8.44695176,15.5416095 C8.72332771,15.818046 9.12917926,16.1491163 9.66468792,16.5348205 C10.2003176,16.9207667 10.7933037,17.3007231 11.4439489,17.6752948 C12.094715,18.0492615 12.8517842,18.3544367 13.7155801,18.5904574 C14.5792549,18.8267201 15.4198783,18.9215277 16.2375711,18.8757877 L18.224114,18.8757877 C18.627001,18.8409987 18.9322367,18.7143062 19.1397001,18.4956498 L19.2084311,18.4090705 C19.2546551,18.3403396 19.2979145,18.2335524 19.3378462,18.0898587 C19.3782619,17.945923 19.3983488,17.7873457 19.3983488,17.6148527 C19.3865508,17.1197598 19.4242439,16.673553 19.5103997,16.2762928 C19.5964949,15.8791536 19.6946301,15.5797262 19.8043819,15.378071 C19.9140731,15.1765973 20.0378615,15.0065849 20.1756259,14.8687599 C20.3136929,14.7306325 20.4120702,14.6469574 20.4697896,14.6181581 C20.5271461,14.5891774 20.5729466,14.569514 20.6074936,14.557716 C20.8838696,14.465631 21.2091316,14.5548119 21.5837638,14.8256821 C21.9580935,15.0963103 22.3091902,15.4304662 22.6375984,15.8276054 C22.9658251,16.2251076 23.3601811,16.6710724 23.820727,17.1661653 C24.2815755,17.6614397 24.6845229,18.0295981 25.0298718,18.2717901 L25.3752208,18.4790721 C25.6058567,18.617381 25.9052842,18.7440735 26.2738661,18.85921 C26.6417825,18.974286 26.9641405,19.0030852 27.2409399,18.9455472 L31.6628947,18.8765743 C32.1002681,18.8765743 32.4405953,18.8041526 32.6820007,18.6604589 C32.9238902,18.5165232 33.0675839,18.3579458 33.1139289,18.1854529 C33.1601529,18.0127784 33.1626335,17.8168709 33.1227018,17.5978515 C33.0817415,17.3793765 33.0413863,17.2266074 33.0012125,17.1402702 Z" id="Shape"></path>
                    </g>
                </g>
            </g>
        </g>
    </g>
</svg>