<?xml version="1.0" encoding="UTF-8"?>
<svg width="25px" height="25px" viewBox="0 0 25 25" version="1.1" xmlns="http://www.w3.org/2000/svg" xmlns:xlink="http://www.w3.org/1999/xlink">
    <!-- Generator: sketchtool 45.2 (43514) - http://www.bohemiancoding.com/sketch -->
    <title>561C21FA-7D4B-4651-A31B-4379E787E71C</title>
    <desc>Created with sketchtool.</desc>
    <defs></defs>
    <g id="Page-1" stroke="none" stroke-width="1" fill="none" fill-rule="evenodd">
        <g id="item.html" transform="translate(-710.000000, -1724.000000)" fill-rule="nonzero" fill="#FFFFFF">
            <g id="Social" transform="translate(130.000000, 1621.000000)">
                <g id="tg" transform="translate(480.000000, 83.000000)">
                    <g id="about-tg" transform="translate(100.000000, 20.000000)">
                        <path d="M24.2750434,1.14892777 C23.872269,0.622722564 23.2476903,0.321105823 22.5609322,0.321105823 C22.1173236,0.321105823 21.6579381,0.444536674 21.1948404,0.68768617 L1.47838606,11.0252519 C0.0770282754,11.7611968 -0.0204171332,12.8692903 0.00278415453,13.3110428 C0.0250573908,13.7555795 0.23943729,14.84604 1.70947088,15.4297844 L4.22913073,16.4265117 C4.70707726,16.6158342 5.24163493,16.7132797 5.81702687,16.7132797 C5.90797592,16.7132797 5.99521276,16.701215 6.08523376,16.6965747 C6.05089585,16.7411212 6.00913353,16.7754591 5.97757978,16.8218617 C5.50798572,17.5243967 5.48478443,18.4765775 5.90983202,19.5020744 C5.91632838,19.5197074 5.92282474,19.5345563 5.9293211,19.5494051 C6.67454647,21.2004087 7.50329646,23.0639361 7.60352603,23.3228625 C7.85038773,23.9669303 8.47960665,24.4105389 9.17007698,24.4105389 C10.233624,24.4105389 10.5491615,23.8982545 12.2892581,21.0658412 C12.4247536,20.8579577 12.7263704,20.3753709 12.7774132,19.7610008 C12.9806565,19.8435974 13.1718351,19.9196976 13.3351722,19.9855893 L16.1267511,21.1233804 C16.6863662,21.3516811 17.1763774,21.5530683 17.4343757,21.6597942 C17.5141881,21.7089809 17.5986408,21.7507433 17.6868057,21.7869373 C17.8835526,21.8648936 18.0932923,21.9047998 18.3039599,21.9047998 C19.5735344,21.9047998 19.8779353,20.8050588 20.0412724,20.2157461 C20.1220129,19.9243379 20.233379,19.5206355 20.3530977,19.0751708 L24.610998,3.43007838 C24.9321038,2.24866881 24.5376819,1.49416293 24.2750434,1.14892777 Z M10.8832601,20.1749118 C10.8832601,20.1749118 9.3037164,22.7465425 9.16914893,22.7465425 C9.16543672,22.7465425 9.16358062,22.7446864 9.16172451,22.7409742 C9.00673991,22.3242791 7.44575727,18.8654311 7.44575727,18.8654311 C7.1580613,18.1721766 7.21003219,17.5782237 7.70468364,17.5782237 C7.81326567,17.5782237 7.94319288,17.6069933 8.09539333,17.6701008 L9.3074286,18.3002477 C9.50974383,18.4385274 9.73062009,18.5582461 9.97376959,18.6538354 L10.035021,18.6770367 L10.1491713,18.7345758 C11.0855753,19.2301554 11.3834798,19.4092693 10.8832601,20.1749118 Z M23.0054689,2.99203807 L18.7494247,18.6371304 C18.5090593,19.5187794 18.3086002,20.2398754 18.304888,20.2398754 C18.3011758,20.2380193 18.2965355,20.2213144 18.2965355,20.2185302 C18.2965355,20.2129619 17.602353,19.9289781 16.7541139,19.5818869 L13.9606789,18.4440957 C13.1124398,18.1007167 11.7212906,17.5448138 10.8684112,17.2162836 L10.7273474,17.1596724 L10.2057825,16.8886814 C9.68885777,16.4924034 9.64338325,15.8390551 10.1630921,15.2850084 L18.8051078,6.03140677 C19.152199,5.66111422 19.2830543,5.4699356 19.2078821,5.4699356 C19.1484868,5.4699356 18.9563802,5.59336646 18.6352743,5.84486842 L7.70097144,14.4701792 C7.22395296,14.8423278 6.49914473,15.0502114 5.81795492,15.0502114 C5.46900755,15.0502114 5.13026875,14.9945283 4.84164473,14.8803779 L2.32384098,13.8845787 C1.47281775,13.547696 1.44033594,12.9259014 2.25052491,12.4989977 L21.9688354,2.15957587 C22.196208,2.04078527 22.3957391,1.98510218 22.5609322,1.98510218 C22.9850518,1.98510218 23.1780865,2.35632279 23.0054689,2.99203807 Z" id="Shape"></path>
                    </g>
                </g>
            </g>
        </g>
    </g>
</svg>