<?xml version="1.0" encoding="UTF-8"?>
<svg width="13px" height="27px" viewBox="0 0 13 27" version="1.1" xmlns="http://www.w3.org/2000/svg" xmlns:xlink="http://www.w3.org/1999/xlink">
    <!-- Generator: sketchtool 45.2 (43514) - http://www.bohemiancoding.com/sketch -->
    <title>36CA01CB-4058-400F-AC9C-A8C01072D22C</title>
    <desc>Created with sketchtool.</desc>
    <defs></defs>
    <g id="Page-1" stroke="none" stroke-width="1" fill="none" fill-rule="evenodd">
        <g id="item.html" transform="translate(-474.000000, -1722.000000)" fill-rule="nonzero" fill="#FFFFFF">
            <g id="Social" transform="translate(130.000000, 1621.000000)">
                <g id="fb" transform="translate(240.000000, 83.000000)">
                    <g id="about-fb" transform="translate(104.000000, 18.000000)">
                        <path d="M2.70060909,5.10334922 C2.70060909,5.76739726 2.70060909,8.73132201 2.70060909,8.73132201 L0.0426402288,8.73132201 L0.0426402288,13.1676212 L2.70060909,13.1676212 L2.70060909,26.3507424 L8.16064137,26.3507424 L8.16064137,13.1679888 L11.8245765,13.1679888 C11.8245765,13.1679888 12.1677201,11.0408173 12.3340538,8.71496434 C11.8571694,8.71496434 8.18128757,8.71496434 8.18128757,8.71496434 C8.18128757,8.71496434 8.18128757,6.13406647 8.18128757,5.68168795 C8.18128757,5.2283292 8.77659663,4.61850041 9.36498277,4.61850041 C9.95226615,4.61850041 11.1917735,4.61850041 12.3398126,4.61850041 C12.3398126,4.01449177 12.3398126,1.92750988 12.3398126,6.12646965e-05 C10.807215,6.12646965e-05 9.06362173,6.12646965e-05 8.29505611,6.12646965e-05 C2.56564296,-0.000245058786 2.70060909,4.4404652 2.70060909,5.10334922 Z" id="Facebook"></path>
                    </g>
                </g>
            </g>
        </g>
    </g>
</svg>