<?xml version="1.0" encoding="UTF-8"?>
<svg width="26px" height="23px" viewBox="0 0 26 23" version="1.1" xmlns="http://www.w3.org/2000/svg" xmlns:xlink="http://www.w3.org/1999/xlink">
    <!-- Generator: sketchtool 45.2 (43514) - http://www.bohemiancoding.com/sketch -->
    <title>8570EC8D-980E-463D-9801-60B78EF258A2</title>
    <desc>Created with sketchtool.</desc>
    <defs></defs>
    <g id="Page-1" stroke="none" stroke-width="1" fill="none" fill-rule="evenodd">
        <g id="item.html" transform="translate(-950.000000, -1724.000000)" fill-rule="nonzero" fill="#FFFFFF">
            <g id="Social" transform="translate(130.000000, 1621.000000)">
                <g id="md" transform="translate(720.000000, 83.000000)">
                    <g id="about-md" transform="translate(100.000000, 20.000000)">
                        <path d="M25.154734,4.34016143 C25.1481141,4.19520987 25.0619571,4.05937908 24.9308829,3.99494527 L17.1223289,0.0906682764 C16.9371675,-0.00186338264 16.7122376,0.0592849898 16.5994049,0.232775721 L11.3232859,8.35001376 L8.60603273,4.13822959 C8.56699977,4.07766966 8.51065696,4.02721122 8.44622315,3.99494527 L0.637669154,0.0906682764 C0.371793873,-0.0422693641 0.0490363853,0.157799088 0.0490363853,0.454469219 L0.0490363853,4.35879525 C0.0490363853,4.58343093 0.231059448,4.76550303 0.455744165,4.76550303 C0.680379846,4.76550303 0.862451945,4.58347997 0.862451945,4.35879525 L0.862451945,1.11248847 L7.85759038,4.61005769 L7.85759038,21.0529384 L0.862402908,17.5554182 L0.862402908,6.09409486 C0.862402908,5.86945917 0.680379846,5.68738708 0.455695129,5.68738708 C0.231059448,5.68738708 0.0489873489,5.86941014 0.0489873489,6.09409486 L0.0489873489,17.8067787 C0.0489873489,17.9608511 0.136026933,18.1016345 0.273819176,18.1705306 L8.08237317,22.0748076 C8.34849363,22.2078924 8.6709569,22.0073826 8.6709569,21.7110557 L8.6709569,14.1267451 L24.5670819,22.0748076 C24.8332024,22.2078924 25.1556657,22.0073826 25.1556657,21.7110557 L25.1556657,4.35874622 C25.1556657,4.35246956 25.1550282,4.34638905 25.154734,4.34016143 Z M8.6709569,13.2173163 L8.6709569,5.73926757 L15.7929525,16.7783386 L8.6709569,13.2173163 Z M24.3422991,21.0530365 L17.5095692,17.6366225 L22.8337438,8.46716169 C22.9464784,8.27292856 22.8804264,8.02401987 22.6861933,7.91123619 C22.4920092,7.79855057 22.2431005,7.86450451 22.1302678,8.05878667 L16.9221623,17.0282771 L11.8064905,9.09894647 L17.083443,0.980629633 L24.1798416,4.52885344 L22.8859185,6.757361 C22.7731838,6.95159413 22.8392359,7.20050282 23.033469,7.3132865 C23.227555,7.42592308 23.4765127,7.36001818 23.5893945,7.16573602 L24.3422991,5.86906688 L24.3422991,21.0530365 Z" id="Shape"></path>
                    </g>
                </g>
            </g>
        </g>
    </g>
</svg>