<?xml version="1.0" encoding="UTF-8"?>
<svg width="300px" height="359px" viewBox="0 0 300 359" version="1.1" xmlns="http://www.w3.org/2000/svg" xmlns:xlink="http://www.w3.org/1999/xlink">
    <!-- Generator: sketchtool 48.2 (47327) - http://www.bohemiancoding.com/sketch -->
    <title>506E00E9-77E2-4929-92C1-7F493857899E</title>
    <desc>Created with sketchtool.</desc>
    <defs></defs>
    <g id="Desktop-HD" stroke="none" stroke-width="1" fill="none" fill-rule="evenodd" transform="translate(-249.000000, -1831.000000)">
        <g id="Кроссплатформа" transform="translate(250.000000, 1752.000000)">
            <g id="devices" transform="translate(0.000000, 80.000000)">
                <path d="M28,196 L28,167" id="Shape" stroke="#1050FF" stroke-width="2" stroke-linecap="round" stroke-linejoin="round"></path>
                <path d="M103,301 L73,282" id="Shape" stroke="#1050FF" stroke-width="2" stroke-linecap="round" stroke-linejoin="round"></path>
                <path d="M215,287 L192,301" id="Shape" stroke="#1050FF" stroke-width="2" stroke-linecap="round" stroke-linejoin="round"></path>
                <path d="M267,167 L267,196" id="Shape" stroke="#1050FF" stroke-width="2" stroke-linecap="round" stroke-linejoin="round"></path>
                <path d="M192,52 L215,66" id="Shape" stroke="#1050FF" stroke-width="2" stroke-linecap="round" stroke-linejoin="round"></path>
                <path d="M65,76 L103,52" id="Shape" stroke="#1050FF" stroke-width="2" stroke-linecap="round" stroke-linejoin="round"></path>
                <g id="Duotone" transform="translate(115.000000, 289.000000)">
                    <polygon id="Shape" fill="#FFFFFF" fill-rule="nonzero" points="60.8589984 40.8 60.8589984 0 6.08589984 0 6.08589984 40.8 0 61.2 4.56442488 68 62.3804734 68 66.9448983 61.2"></polygon>
                    <polygon id="Shape" fill="#CCEFFF" fill-rule="nonzero" points="60.8589984 0 60.8589984 40.8 6.08589984 40.8"></polygon>
                    <polygon id="Shape" fill="#CCEFFF" fill-rule="nonzero" points="0 61.2 4.56442488 68 62.3804734 68 66.9448983 61.2"></polygon>
                    <rect id="Rectangle-path" stroke="#1050FF" stroke-width="2" stroke-linecap="round" stroke-linejoin="round" x="6.08589984" y="0" width="54.7730986" height="40.8"></rect>
                    <polyline id="Shape" stroke="#1050FF" stroke-width="2" stroke-linecap="round" stroke-linejoin="round" points="60.8589984 40.8 66.9448983 61.2 0 61.2 6.08589984 40.8"></polyline>
                    <polygon id="Shape" stroke="#1050FF" stroke-width="2" stroke-linecap="round" stroke-linejoin="round" points="0 61.2 4.56442488 68 62.3804734 68 66.9448983 61.2"></polygon>
                    <polyline id="Shape" stroke="#1050FF" stroke-width="2" stroke-linecap="round" stroke-linejoin="round" points="24.3435994 61.2 27.3865493 54.4 39.558349 54.4 42.6012989 61.2"></polyline>
                </g>
                <g id="Group" transform="translate(231.000000, 72.000000)">
                    <polygon id="Shape" fill="#FFFFFF" fill-rule="nonzero" points="60.8589984 79 3.04294992 79 9.12884977 65.2608696 54.7730986 65.2608696"></polygon>
                    <polygon id="Shape" fill="#FFFFFF" fill-rule="nonzero" points="66.9448983 48.0869565 66.9448983 0 0 0 0 48.0869565 27.3865493 48.0869565 27.3865493 53.2391304 21.3006495 58.3913043 45.6442488 58.3913043 39.558349 53.2391304 39.558349 48.0869565"></polygon>
                    <polygon id="Shape" fill="#CCEFFF" fill-rule="nonzero" points="66.9448983 0 0 37.7826087 66.9448983 37.7826087"></polygon>
                    <rect id="Rectangle-path" stroke="#1050FF" stroke-width="2" stroke-linecap="round" stroke-linejoin="round" x="0" y="0" width="66.9448983" height="48.0869565"></rect>
                    <path d="M0,37.7826087 L66.9448983,37.7826087" id="Shape" stroke="#1050FF" stroke-width="2" stroke-linecap="round" stroke-linejoin="round"></path>
                    <polyline id="Shape" stroke="#1050FF" stroke-width="2" stroke-linecap="round" stroke-linejoin="round" points="39.558349 48.0869565 39.558349 53.2391304 45.6442488 58.3913043 21.3006495 58.3913043 27.3865493 53.2391304 27.3865493 48.0869565"></polyline>
                    <polygon id="Shape" stroke="#1050FF" stroke-width="2" stroke-linecap="round" stroke-linejoin="round" points="60.8589984 79 3.04294992 79 9.12884977 65.2608696 54.7730986 65.2608696"></polygon>
                    <path d="M12.1717997,72.1304348 L15.2147496,72.1304348" id="Shape" stroke="#1050FF" stroke-width="2" stroke-linecap="round" stroke-linejoin="round"></path>
                    <path d="M21.3006495,72.1304348 L24.3435994,72.1304348" id="Shape" stroke="#1050FF" stroke-width="2" stroke-linecap="round" stroke-linejoin="round"></path>
                    <path d="M30.4294992,72.1304348 L33.4724491,72.1304348" id="Shape" stroke="#1050FF" stroke-width="2" stroke-linecap="round" stroke-linejoin="round"></path>
                    <path d="M39.558349,72.1304348 L42.6012989,72.1304348" id="Shape" stroke="#1050FF" stroke-width="2" stroke-linecap="round" stroke-linejoin="round"></path>
                    <path d="M48.6871988,72.1304348 L51.7301487,72.1304348" id="Shape" stroke="#1050FF" stroke-width="2" stroke-linecap="round" stroke-linejoin="round"></path>
                </g>
                <g id="Duotone_2_" transform="translate(0.000000, 210.000000)">
                    <rect id="Rectangle-path" fill="#FFFFFF" fill-rule="nonzero" x="0" y="0" width="55.2133779" height="79"></rect>
                    <path d="M0,65.2608696 L55.2133779,65.2608696 L55.2133779,0 L0,65.2608696 Z M30.6740988,44.6521739 L24.5392791,44.6521739 L24.5392791,37.7826087 L30.6740988,37.7826087 L30.6740988,44.6521739 Z M42.9437384,30.9130435 L36.8089186,30.9130435 L36.8089186,24.0434783 L42.9437384,24.0434783 L42.9437384,30.9130435 Z" id="Shape" fill="#CCEFFF" fill-rule="nonzero"></path>
                    <rect id="Rectangle-path" stroke="#1050FF" stroke-width="2" stroke-linecap="round" stroke-linejoin="round" x="12.2696395" y="10.3043478" width="6.13481977" height="6.86956522"></rect>
                    <rect id="Rectangle-path" stroke="#1050FF" stroke-width="2" stroke-linecap="round" stroke-linejoin="round" x="24.5392791" y="10.3043478" width="6.13481977" height="6.86956522"></rect>
                    <rect id="Rectangle-path" stroke="#1050FF" stroke-width="2" stroke-linecap="round" stroke-linejoin="round" x="12.2696395" y="24.0434783" width="6.13481977" height="6.86956522"></rect>
                    <rect id="Rectangle-path" stroke="#1050FF" stroke-width="2" stroke-linecap="round" stroke-linejoin="round" x="24.5392791" y="24.0434783" width="6.13481977" height="6.86956522"></rect>
                    <rect id="Rectangle-path" stroke="#1050FF" stroke-width="2" stroke-linecap="round" stroke-linejoin="round" x="12.2696395" y="37.7826087" width="6.13481977" height="6.86956522"></rect>
                    <rect id="Rectangle-path" stroke="#1050FF" stroke-width="2" stroke-linecap="round" stroke-linejoin="round" x="36.8089186" y="10.3043478" width="6.13481977" height="6.86956522"></rect>
                    <rect id="Rectangle-path" stroke="#1050FF" stroke-width="2" stroke-linecap="round" stroke-linejoin="round" x="36.8089186" y="24.0434783" width="6.13481977" height="6.86956522"></rect>
                    <rect id="Rectangle-path" stroke="#1050FF" stroke-width="2" stroke-linecap="round" stroke-linejoin="round" x="24.5392791" y="37.7826087" width="6.13481977" height="6.86956522"></rect>
                    <rect id="Rectangle-path" stroke="#1050FF" stroke-width="2" stroke-linecap="round" stroke-linejoin="round" x="0" y="0" width="55.2133779" height="79"></rect>
                    <path d="M55.2133779,65.2608696 L0,65.2608696" id="Shape" stroke="#1050FF" stroke-width="2" stroke-linecap="round" stroke-linejoin="round"></path>
                    <path d="M24.5392791,72.1304348 L30.6740988,72.1304348" id="Shape" stroke="#1050FF" stroke-width="2" stroke-linecap="round" stroke-linejoin="round"></path>
                </g>
                <g id="Duotone_1_" transform="translate(226.000000, 216.000000)">
                    <rect id="Rectangle-path" fill="#FFFFFF" fill-rule="nonzero" x="0" y="0" width="70.5992893" height="61"></rect>
                    <path d="M60.4698261,20.3333333 L61.3906863,20.3333333 L61.3906863,27.1111111 L50.4938395,27.1111111 L40.3643763,33.8888889 L61.3906863,33.8888889 L61.3906863,40.6666667 L36.8344118,40.6666667 L36.8344118,36.2611111 L30.6953432,40.3277778 L30.6953432,54.2222222 L10.1294632,54.2222222 L0,61 L70.5992893,61 L70.5992893,13.5555556 L60.4698261,20.3333333 Z M61.3906863,54.2222222 L36.8344118,54.2222222 L36.8344118,47.4444444 L61.3906863,47.4444444 L61.3906863,54.2222222 Z" id="Shape" fill="#CCEFFF" fill-rule="nonzero"></path>
                    <g id="Group" stroke="#1050FF" stroke-linecap="round" stroke-width="2">
                        <path d="M6.13906863,6.77777778 L9.20860295,6.77777778" id="Shape"></path>
                        <path d="M15.3476716,6.77777778 L18.4172059,6.77777778" id="Shape"></path>
                        <path d="M24.5562745,6.77777778 L27.6258089,6.77777778" id="Shape"></path>
                        <rect id="Rectangle-path" stroke-linejoin="round" x="0" y="0" width="70.5992893" height="61"></rect>
                        <path d="M0,13.5555556 L70.5992893,13.5555556" id="Shape" stroke-linejoin="round"></path>
                        <rect id="Rectangle-path" stroke-linejoin="round" x="36.8344118" y="33.8888889" width="24.5562745" height="6.77777778"></rect>
                        <rect id="Rectangle-path" stroke-linejoin="round" x="36.8344118" y="20.3333333" width="24.5562745" height="6.77777778"></rect>
                        <rect id="Rectangle-path" stroke-linejoin="round" x="36.8344118" y="47.4444444" width="24.5562745" height="6.77777778"></rect>
                        <rect id="Rectangle-path" stroke-linejoin="round" x="6.13906863" y="20.3333333" width="24.5562745" height="33.8888889"></rect>
                        <polygon id="Shape" stroke-linejoin="round" points="24.5562745 40.6666667 18.4172059 44.0555556 12.2781373 40.6666667 12.2781373 32.1944444 18.4172059 28.8055556 24.5562745 32.1944444"></polygon>
                        <polyline id="Shape" stroke-linejoin="round" points="6.13906863 54.2222222 10.7433701 47.4444444 26.0910417 47.4444444 30.6953432 54.2222222"></polyline>
                    </g>
                </g>
                <g id="Group" transform="translate(0.000000, 72.000000)">
                    <polygon id="Shape" fill="#FFFFFF" fill-rule="nonzero" points="53.679673 27.6363636 49.0785582 27.6363636 49.0785582 13.8181818 41.4100334 6.90909091 39.8763285 0 9.20222965 0 7.66852471 6.90909091 0 13.8181818 0 62.1818182 7.66852471 69.0909091 9.20222965 76 39.8763285 76 41.4100334 69.0909091 49.0785582 62.1818182 49.0785582 38 53.679673 38 55.2133779 32.8181818"></polygon>
                    <polygon id="Shape" fill="#CCEFFF" fill-rule="nonzero" points="24.5392791 50.0909091 39.8763285 32.8181818 32.2078038 22.4545455 24.5392791 29.3636364"></polygon>
                    <polygon id="Shape" fill="#CCEFFF" fill-rule="nonzero" points="35.5819547 27.1181818 39.8763285 32.8181818 24.5392791 50.0909091 18.8645708 43.7 0 62.1818182 49.0785582 62.1818182 49.0785582 13.8181818"></polygon>
                    <rect id="Rectangle-path" stroke="#1050FF" stroke-width="2" stroke-linecap="round" stroke-linejoin="round" x="0" y="13.8181818" width="49.0785582" height="48.3636364"></rect>
                    <polyline id="Shape" stroke="#1050FF" stroke-width="2" stroke-linecap="round" stroke-linejoin="round" points="49.0785582 13.8181818 41.4100334 6.90909091 39.8763285 0 9.20222965 0 7.66852471 6.90909091 0 13.8181818"></polyline>
                    <polyline id="Shape" stroke="#1050FF" stroke-width="2" stroke-linecap="round" stroke-linejoin="round" points="49.0785582 62.1818182 41.4100334 69.0909091 39.8763285 76 9.20222965 76 7.66852471 69.0909091 0 62.1818182"></polyline>
                    <polyline id="Shape" stroke="#1050FF" stroke-width="2" stroke-linecap="round" stroke-linejoin="round" points="49.0785582 27.6363636 53.679673 27.6363636 55.2133779 32.8181818 53.679673 38 49.0785582 38"></polyline>
                    <path d="M7.66852471,6.90909091 L41.4100334,6.90909091" id="Shape" stroke="#1050FF" stroke-width="2" stroke-linecap="round" stroke-linejoin="round"></path>
                    <path d="M7.66852471,69.0909091 L41.4100334,69.0909091" id="Shape" stroke="#1050FF" stroke-width="2" stroke-linecap="round" stroke-linejoin="round"></path>
                    <polygon id="Shape" stroke="#1050FF" stroke-width="2" stroke-linejoin="round" points="24.5392791 50.0909091 39.8763285 32.8181818 32.2078038 22.4545455 24.5392791 29.3636364 16.8707544 22.4545455 9.20222965 32.8181818"></polygon>
                    <polygon id="Shape" stroke="#1050FF" stroke-width="2" stroke-linecap="round" stroke-linejoin="round" points="24.5392791 50.0909091 39.8763285 32.8181818 32.2078038 22.4545455 24.5392791 29.3636364 16.8707544 22.4545455 9.20222965 32.8181818"></polygon>
                    <polygon id="Shape" stroke="#1050FF" stroke-width="2" stroke-linejoin="round" points="24.5392791 50.0909091 39.8763285 32.8181818 32.2078038 22.4545455 24.5392791 29.3636364 16.8707544 22.4545455 9.20222965 32.8181818"></polygon>
                </g>
                <g id="Group" transform="translate(113.000000, 0.000000)">
                    <polyline id="Shape" fill="#FFFFFF" fill-rule="nonzero" points="11.471464 41.1428571 13.0009926 48 29.8258065 48 37.4734491 34.2857143 45.1210918 48 61.9459057 48 68.0640199 20.5714286 6.88287841 20.5714286 9.17717122 30.8571429"></polyline>
                    <polygon id="Shape" fill="#CCEFFF" fill-rule="nonzero" points="61.9459057 48 68.0640199 20.5714286 57.2043672 20.5714286 40.3795533 39.4285714 45.1210918 48"></polygon>
                    <polygon id="Shape" fill="#CCEFFF" fill-rule="nonzero" points="20.6486352 41.1428571 2.2942928 41.1428571 0.764764268 30.8571429 25.2372208 30.8571429"></polygon>
                    <polyline id="Shape" stroke="#1050FF" stroke-width="2" stroke-linecap="round" stroke-linejoin="round" points="6.88287841 20.5714286 24.4724566 0 31.355335 0"></polyline>
                    <polyline id="Shape" stroke="#1050FF" stroke-width="2" stroke-linecap="round" stroke-linejoin="round" points="68.0640199 20.5714286 50.4744417 0 43.5915633 0"></polyline>
                    <polygon id="Shape" stroke="#1050FF" stroke-width="2" stroke-linecap="round" stroke-linejoin="round" points="20.6486352 41.1428571 2.2942928 41.1428571 0.764764268 30.8571429 25.2372208 30.8571429"></polygon>
                    <polyline id="Shape" stroke="#1050FF" stroke-width="2" stroke-linecap="round" stroke-linejoin="round" points="11.471464 41.1428571 13.0009926 48 29.8258065 48 37.4734491 34.2857143 45.1210918 48 61.9459057 48 68.0640199 20.5714286 6.88287841 20.5714286 9.17717122 30.8571429"></polyline>
                </g>
            </g>
        </g>
    </g>
</svg>