<?xml version="1.0" encoding="UTF-8"?>
<svg width="384px" height="278px" viewBox="0 0 384 278" version="1.1" xmlns="http://www.w3.org/2000/svg" xmlns:xlink="http://www.w3.org/1999/xlink">
    <!-- Generator: sketchtool 48.2 (47327) - http://www.bohemiancoding.com/sketch -->
    <title>679F1DCF-1ACE-4F6C-A17B-D77687CEFF10</title>
    <desc>Created with sketchtool.</desc>
    <defs></defs>
    <g id="Desktop-HD" stroke="none" stroke-width="1" fill="none" fill-rule="evenodd" transform="translate(-249.000000, -959.000000)">
        <g id="Быстрый-запуск" transform="translate(250.000000, 877.000000)">
            <g id="launch" transform="translate(0.000000, 83.000000)">
                <polygon id="Shape" stroke="#1050FF" stroke-width="2" fill="#FFFFFF" fill-rule="nonzero" stroke-linejoin="round" points="60 276 32 276 22 244 70 244"></polygon>
                <polygon id="Shape" stroke="#1050FF" stroke-width="2" fill="#FFFFFF" fill-rule="nonzero" stroke-linejoin="round" points="348 276 312 276 306 228 354 228"></polygon>
                <polygon id="Shape" fill="#FFFFFF" fill-rule="nonzero" points="62 244 30 244 30 202 46 190 62 202"></polygon>
                <polygon id="Shape" fill="#FFFFFF" fill-rule="nonzero" points="210 276 202 254 174 254 166 276"></polygon>
                <polyline id="Shape" fill="#FFFFFF" fill-rule="nonzero" points="238 118 284 118 284 254 92 254 92 118 142 118"></polyline>
                <polygon id="Shape" fill="#FFFFFF" fill-rule="nonzero" points="178 140 168 56 188 10 208 56 198 140"></polygon>
                <polygon id="Shape" fill="#CCEFFF" fill-rule="nonzero" points="46 190 62 202 62 244 46 244"></polygon>
                <polygon id="Shape" fill="#CCEFFF" fill-rule="nonzero" points="205 264 201.420455 254 173.579545 254 170 264"></polygon>
                <polygon id="Shape" fill="#CCEFFF" fill-rule="nonzero" points="188 10 208 56 198 140 188 140"></polygon>
                <polygon id="Shape" fill="#CCEFFF" fill-rule="nonzero" points="284 118 284 228 92 228"></polygon>
                <polyline id="Shape" stroke="#1050FF" stroke-width="2" stroke-linecap="round" stroke-linejoin="round" points="316 218 320 214 312 206 316 202"></polyline>
                <polyline id="Shape" stroke="#1050FF" stroke-width="2" stroke-linecap="round" stroke-linejoin="round" points="330 218 334 214 326 206 330 202"></polyline>
                <polyline id="Shape" stroke="#1050FF" stroke-width="2" stroke-linecap="round" stroke-linejoin="round" points="344 218 348 214 340 206 344 202"></polyline>
                <polygon id="Shape" stroke="#1050FF" stroke-width="2" stroke-linejoin="round" points="194 244 188 248 182 244 182 238 188 234 194 238"></polygon>
                <polygon id="Shape" stroke="#1050FF" stroke-width="2" stroke-linecap="round" stroke-linejoin="round" points="210 276 202 254 174 254 166 276"></polygon>
                <polygon id="Shape" stroke="#1050FF" stroke-width="2" stroke-linecap="round" stroke-linejoin="round" points="62 244 30 244 30 202 46 190 62 202"></polygon>
                <path d="M30,212 L24,212" id="Shape" stroke="#1050FF" stroke-width="2" stroke-linecap="round" stroke-linejoin="round"></path>
                <path d="M30,202 L26,200" id="Shape" stroke="#1050FF" stroke-width="2" stroke-linecap="round" stroke-linejoin="round"></path>
                <path d="M30,224 L24,224" id="Shape" stroke="#1050FF" stroke-width="2" stroke-linecap="round" stroke-linejoin="round"></path>
                <path d="M30,236 L24,236" id="Shape" stroke="#1050FF" stroke-width="2" stroke-linecap="round" stroke-linejoin="round"></path>
                <path d="M62,212 L68,212" id="Shape" stroke="#1050FF" stroke-width="2" stroke-linecap="round" stroke-linejoin="round"></path>
                <path d="M62,224 L68,224" id="Shape" stroke="#1050FF" stroke-width="2" stroke-linecap="round" stroke-linejoin="round"></path>
                <path d="M62,236 L68,236" id="Shape" stroke="#1050FF" stroke-width="2" stroke-linecap="round" stroke-linejoin="round"></path>
                <path d="M38,196 L34,192" id="Shape" stroke="#1050FF" stroke-width="2" stroke-linecap="round" stroke-linejoin="round"></path>
                <path d="M62,202 L66,200" id="Shape" stroke="#1050FF" stroke-width="2" stroke-linecap="round" stroke-linejoin="round"></path>
                <path d="M54,196 L58,192" id="Shape" stroke="#1050FF" stroke-width="2" stroke-linecap="round" stroke-linejoin="round"></path>
                <path d="M25,252 L68,252" id="Shape" stroke="#1050FF" stroke-width="2" stroke-linecap="round" stroke-linejoin="round"></path>
                <polyline id="Shape" stroke="#1050FF" stroke-width="2" stroke-linecap="round" stroke-linejoin="round" points="38 236 42 230 38 224 42 218 38 212 42 206"></polyline>
                <polyline id="Shape" stroke="#1050FF" stroke-width="2" stroke-linecap="round" stroke-linejoin="round" points="50 236 54 230 50 224 54 218 50 212 54 206"></polyline>
                <g id="Group" transform="translate(0.000000, 276.000000)" stroke="#1050FF" stroke-linecap="round" stroke-linejoin="round" stroke-width="2">
                    <path d="M18,0 L366,0" id="Shape"></path>
                    <path d="M376,0 L382,0" id="Shape"></path>
                    <path d="M0,0 L6,0" id="Shape"></path>
                </g>
                <polygon id="Shape" stroke="#1050FF" stroke-width="2" fill="#FFFFFF" fill-rule="nonzero" stroke-linejoin="round" points="196 67 188 72 180 67 180 57 188 52 196 57"></polygon>
                <polygon id="Shape" stroke="#1050FF" stroke-width="2" stroke-linecap="round" stroke-linejoin="round" points="178 140 168 56 188 10 208 56 198 140"></polygon>
                <polygon id="Shape" stroke="#1050FF" stroke-width="2" fill="#FFFFFF" fill-rule="nonzero" stroke-linecap="round" stroke-linejoin="round" points="166 160 156 172 146 160 156 116"></polygon>
                <polygon id="Shape" stroke="#1050FF" stroke-width="2" fill="#FFFFFF" fill-rule="nonzero" stroke-linecap="round" stroke-linejoin="round" points="198 160 188 172 178 160 188 116"></polygon>
                <polygon id="Shape" stroke="#1050FF" stroke-width="2" fill="#FFFFFF" fill-rule="nonzero" stroke-linecap="round" stroke-linejoin="round" points="230 160 220 172 210 160 220 116"></polygon>
                <path d="M160,132 L174,104" id="Shape" stroke="#1050FF" stroke-width="2" stroke-linecap="round" stroke-linejoin="round"></path>
                <path d="M164,152 L178,140" id="Shape" stroke="#1050FF" stroke-width="2" stroke-linecap="round" stroke-linejoin="round"></path>
                <path d="M216,132 L202,104" id="Shape" stroke="#1050FF" stroke-width="2" stroke-linecap="round" stroke-linejoin="round"></path>
                <path d="M212,152 L198,140" id="Shape" stroke="#1050FF" stroke-width="2" stroke-linecap="round" stroke-linejoin="round"></path>
                <path d="M188,10 L188,0" id="Shape" stroke="#1050FF" stroke-width="2" stroke-linecap="round" stroke-linejoin="round"></path>
                <path d="M146,160 L166,160" id="Shape" stroke="#1050FF" stroke-width="2" stroke-linecap="round" stroke-linejoin="round"></path>
                <path d="M178,160 L198,160" id="Shape" stroke="#1050FF" stroke-width="2" stroke-linecap="round" stroke-linejoin="round"></path>
                <path d="M210,160 L230,160" id="Shape" stroke="#1050FF" stroke-width="2" stroke-linecap="round" stroke-linejoin="round"></path>
                <polygon id="Shape" stroke="#1050FF" stroke-width="2" fill="#CCEFFF" fill-rule="nonzero" stroke-linejoin="round" points="330 262 342 250 336 240 330 246 324 240 318 250"></polygon>
                <polyline id="Shape" stroke="#1050FF" stroke-width="2" stroke-linecap="round" stroke-linejoin="round" points="352.934783 240 368 240 358.217391 264 350 264"></polyline>
                <g id="Group" transform="translate(180.000000, 178.000000)" stroke="#1050FF" stroke-linecap="round" stroke-linejoin="round" stroke-width="2">
                    <path d="M8,4 L8,16" id="Shape"></path>
                    <path d="M8,24 L8,28" id="Shape"></path>
                    <path d="M16,0 L16,12" id="Shape"></path>
                    <path d="M16,20 L16,24" id="Shape"></path>
                    <path d="M0,0 L0,12" id="Shape"></path>
                    <path d="M0,20 L0,24" id="Shape"></path>
                    <path d="M8,36 L8,38" id="Shape"></path>
                    <path d="M16,32 L16,34" id="Shape"></path>
                    <path d="M0,32 L0,34" id="Shape"></path>
                </g>
                <g id="Group" transform="translate(148.000000, 178.000000)" stroke="#1050FF" stroke-linecap="round" stroke-linejoin="round" stroke-width="2">
                    <path d="M8,4 L8,16" id="Shape"></path>
                    <path d="M8,24 L8,28" id="Shape"></path>
                    <path d="M16,0 L16,12" id="Shape"></path>
                    <path d="M16,20 L16,24" id="Shape"></path>
                    <path d="M0,0 L0,12" id="Shape"></path>
                    <path d="M0,20 L0,24" id="Shape"></path>
                    <path d="M8,36 L8,38" id="Shape"></path>
                    <path d="M16,32 L16,34" id="Shape"></path>
                    <path d="M0,32 L0,34" id="Shape"></path>
                </g>
                <g id="Group" transform="translate(212.000000, 178.000000)" stroke="#1050FF" stroke-linecap="round" stroke-linejoin="round" stroke-width="2">
                    <path d="M8,4 L8,16" id="Shape"></path>
                    <path d="M8,24 L8,28" id="Shape"></path>
                    <path d="M16,0 L16,12" id="Shape"></path>
                    <path d="M16,20 L16,24" id="Shape"></path>
                    <path d="M0,0 L0,12" id="Shape"></path>
                    <path d="M0,20 L0,24" id="Shape"></path>
                    <path d="M8,36 L8,38" id="Shape"></path>
                    <path d="M16,32 L16,34" id="Shape"></path>
                    <path d="M0,32 L0,34" id="Shape"></path>
                </g>
                <polyline id="Shape" stroke="#1050FF" stroke-width="2" stroke-linecap="round" stroke-linejoin="round" points="238 118 284 118 284 254 92 254 92 118 142 118"></polyline>
                <path d="M92,228 L284,228" id="Shape" stroke="#1050FF" stroke-width="2" stroke-linecap="round" stroke-linejoin="round"></path>
            </g>
        </g>
    </g>
</svg>