<?xml version="1.0" encoding="UTF-8"?>
<svg width="380px" height="214px" viewBox="0 0 380 214" version="1.1" xmlns="http://www.w3.org/2000/svg" xmlns:xlink="http://www.w3.org/1999/xlink">
    <!-- Generator: sketchtool 48.2 (47327) - http://www.bohemiancoding.com/sketch -->
    <title>70A69D64-8EF6-42F6-B4FD-FE8B8667F24C</title>
    <desc>Created with sketchtool.</desc>
    <defs></defs>
    <g id="Desktop-HD" stroke="none" stroke-width="1" fill="none" fill-rule="evenodd" transform="translate(-811.000000, -1435.000000)">
        <g id="Удобная-CRM-система" transform="translate(250.000000, 1359.000000)">
            <g id="standing-desk" transform="translate(562.000000, 77.000000)">
                <polygon id="Shape" fill="#FFFFFF" fill-rule="nonzero" points="197 119 235.518519 119 247.37037 119 277 107 277 69 241.444444 55 205.888889 69 203.91358 81"></polygon>
                <polyline id="Shape" fill="#FFFFFF" fill-rule="nonzero" points="261 26 267 26 267 32 261 35"></polyline>
                <polyline id="Shape" fill="#FFFFFF" fill-rule="nonzero" points="139 136 125 212 153 136"></polyline>
                <polyline id="Shape" fill="#FFFFFF" fill-rule="nonzero" points="265.111111 136 273 212 237.5 148 202 212 211.861111 136"></polyline>
                <polygon id="Shape" fill="#FFFFFF" fill-rule="nonzero" points="311.148148 137 128.851852 137 113 119 327 119"></polygon>
                <polyline id="Shape" fill="#FFFFFF" fill-rule="nonzero" points="303 136 317 212 289 136"></polyline>
                <polygon id="Shape" fill="#FFFFFF" fill-rule="nonzero" points="310.181818 119 296.818182 119 293 93 314 93"></polygon>
                <polygon id="Shape" fill="#FFFFFF" fill-rule="nonzero" points="260 43.1538462 240.5 51 221 43.1538462 221 10.7884615 240.5 0 260 10.7884615"></polygon>
                <polygon id="Shape" fill="#FFFFFF" fill-rule="nonzero" points="71.2631579 212 53.7368421 212 44 175 81 175"></polygon>
                <polygon id="Shape" fill="#CCEFFF" fill-rule="nonzero" points="238 148 274 212 266 136 222 136 215 188.8"></polygon>
                <polygon id="Shape" fill="#CCEFFF" fill-rule="nonzero" points="305 148 302.82716 136 289 136 293.345679 148"></polygon>
                <polygon id="Shape" fill="#CCEFFF" fill-rule="nonzero" points="136 148 138.17284 136 152 136 147.654321 148"></polygon>
                <polygon id="Shape" fill="#CCEFFF" fill-rule="nonzero" points="63 175 82 175 72 212 63 212"></polygon>
                <polygon id="Shape" fill="#CCEFFF" fill-rule="nonzero" points="302 119 310 119 314 93 302 93"></polygon>
                <polygon id="Shape" fill="#CCEFFF" fill-rule="nonzero" points="221 21 221 18 240.5 7 260 18 260 21"></polygon>
                <polygon id="Shape" stroke="#1050FF" stroke-width="2" stroke-linejoin="round" points="260 43.1538462 240.5 51 221 43.1538462 221 10.7884615 240.5 0 260 10.7884615"></polygon>
                <path d="M231,31 L231,28" id="Shape" stroke="#1050FF" stroke-width="2" stroke-linecap="round" stroke-linejoin="round"></path>
                <path d="M247,31 L247,28" id="Shape" stroke="#1050FF" stroke-width="2" stroke-linecap="round" stroke-linejoin="round"></path>
                <polygon id="Shape" stroke="#1050FF" stroke-width="2" fill="#FFFFFF" fill-rule="nonzero" stroke-linecap="round" stroke-linejoin="round" points="141.491315 118 127 67 192.508685 67 207 118"></polygon>
                <polygon id="Shape" stroke="#1050FF" stroke-width="2" fill="#CCEFFF" fill-rule="nonzero" stroke-linejoin="round" points="172 92 166 96 160 92 160 86 166 82 172 86"></polygon>
                <polyline id="Shape" stroke="#1050FF" stroke-width="2" stroke-linecap="round" stroke-linejoin="round" points="253 61 241 85 229 61"></polyline>
                <path d="M260,21 L203,21" id="Shape" stroke="#1050FF" stroke-width="2" stroke-linecap="round" stroke-linejoin="round"></path>
                <polyline id="Shape" stroke="#1050FF" stroke-width="2" stroke-linecap="round" stroke-linejoin="round" points="244 39 239 41 234 39"></polyline>
                <polyline id="Shape" stroke="#1050FF" stroke-width="2" stroke-linecap="round" stroke-linejoin="round" points="261 26 267 26 267 32 261 35"></polyline>
                <path d="M203,111 L138,111" id="Shape" stroke="#1050FF" stroke-width="2" stroke-linecap="round" stroke-linejoin="round"></path>
                <polygon id="Shape" stroke="#1050FF" stroke-width="2" fill="#FFFFFF" fill-rule="nonzero" stroke-linecap="round" stroke-linejoin="round" points="206.160714 118 237 118 233.071429 111 204 111"></polygon>
                <polyline id="Shape" stroke="#1050FF" stroke-width="2" stroke-linecap="round" stroke-linejoin="round" points="264.162162 83 264.162162 97 234.567568 119 246.405405 119 276 107 276 69 240.486486 55 204.972973 69 203 81"></polyline>
                <path d="M265,83 L265,93" id="Shape" stroke="#1050FF" stroke-width="2" stroke-linecap="round" stroke-linejoin="round"></path>
                <polygon id="Shape" stroke="#1050FF" stroke-width="2" stroke-linecap="round" stroke-linejoin="round" points="311.148148 137 128.851852 137 113 119 327 119"></polygon>
                <polyline id="Shape" stroke="#1050FF" stroke-width="2" stroke-linecap="round" stroke-linejoin="round" points="139 136 125 212 153 136"></polyline>
                <polyline id="Shape" stroke="#1050FF" stroke-width="2" stroke-linecap="round" stroke-linejoin="round" points="303 136 317 212 289 136"></polyline>
                <g id="Group" transform="translate(0.000000, 212.000000)" stroke="#1050FF" stroke-linecap="round" stroke-linejoin="round" stroke-width="2">
                    <path d="M17.8115183,0 L362.167539,0" id="Shape"></path>
                    <path d="M372.062827,0 L378,0" id="Shape"></path>
                    <path d="M0,0 L5.93717277,0" id="Shape"></path>
                </g>
                <polyline id="Shape" stroke="#1050FF" stroke-width="2" stroke-linecap="round" stroke-linejoin="round" points="265.111111 136 273 212 237.5 148 202 212 211.861111 136"></polyline>
                <g id="Group" transform="translate(293.000000, 65.000000)" stroke="#1050FF" stroke-linecap="round" stroke-linejoin="round" stroke-width="2">
                    <polyline id="Shape" points="3.81818182 16 7.63636364 12 0 4 3.81818182 0"></polyline>
                    <polyline id="Shape" points="17.1818182 16 21 12 13.3636364 4 17.1818182 0"></polyline>
                </g>
                <polygon id="Shape" stroke="#1050FF" stroke-width="2" stroke-linecap="round" stroke-linejoin="round" points="310.181818 119 296.818182 119 293 93 314 93"></polygon>
                <polygon id="Shape" stroke="#1050FF" stroke-width="2" stroke-linecap="round" stroke-linejoin="round" points="71.2631579 212 53.7368421 212 44 175 81 175"></polygon>
                <polygon id="Shape" stroke="#1050FF" stroke-width="2" fill="#FFFFFF" fill-rule="nonzero" stroke-linecap="round" stroke-linejoin="round" points="71 141 79 141 87 125 71 133"></polygon>
                <polygon id="Shape" stroke="#1050FF" stroke-width="2" fill="#FFFFFF" fill-rule="nonzero" stroke-linecap="round" stroke-linejoin="round" points="53 155 45.3636364 155 32 135 53 147"></polygon>
                <polygon id="Shape" stroke="#1050FF" stroke-width="2" fill="#FFFFFF" fill-rule="nonzero" stroke-linecap="round" stroke-linejoin="round" points="73 103 80.6363636 103 94 83 73 95"></polygon>
                <polygon id="Shape" stroke="#1050FF" stroke-width="2" fill="#FFFFFF" fill-rule="nonzero" stroke-linecap="round" stroke-linejoin="round" points="45 122 23 99 55 112.416667 55 122"></polygon>
                <path d="M63,174 L63,69" id="Shape" stroke="#1050FF" stroke-width="2" stroke-linecap="round" stroke-linejoin="round"></path>
                <polygon id="Shape" stroke="#1050FF" stroke-width="2" fill="#FFFFFF" fill-rule="nonzero" stroke-linecap="round" stroke-linejoin="round" points="55 80 35 64 45 86 55 90"></polygon>
                <polyline id="Shape" stroke="#1050FF" stroke-width="2" stroke-linecap="round" stroke-linejoin="round" points="49 191 57 184 63 189.25 69 184 77 191"></polyline>
            </g>
        </g>
    </g>
</svg>